# xmcd
#
# Track frame offsets: 
#        150
#        16083
#        26570
#        44590
#        59066
#        70670
#        83231
#        96176
#        114142
#        134562
#        148586
#        161917
#        177846
#        190357
#
# Disc length: 2737 seconds
#
# Revision: 0
# Processed by: cddbd v1.5.2PL0 Copyright (c) Steve Scherf et al.
# Submitted via: ExactAudioCopy v0.99pb5
#
DISCID=c40aaf0e
DTITLE=Lost Country - Scattered
DYEAR=2007
DGENRE=Alternative
TTITLE0=Hard Love
TTITLE1=I Hate Myself
TTITLE2=Your Number's Up
TTITLE3=Scattered
TTITLE4=I Gotta Dance
TTITLE5=It's Dark In Here
TTITLE6=Keep Me and Never Go Broke
TTITLE7=I Ain't Goin' Back To New Orleans
TTITLE8=Let The Guitar Howl
TTITLE9=This Cold War With You
TTITLE10=Love Was In Your Kiss
TTITLE11=She Did Him In
TTITLE12=Dead Man's Blues
TTITLE13=Love Struck
EXTD=
EXTT0=
EXTT1=
EXTT2=
EXTT3=
EXTT4=
EXTT5=
EXTT6=
EXTT7=
EXTT8=
EXTT9=
EXTT10=
EXTT11=
EXTT12=
EXTT13=
PLAYORDER=
